<?xml version="1.0" encoding="UTF-8" standalone="no"?>
<svg width="759px" height="578px" viewBox="0 0 759 578" version="1.1" xmlns="http://www.w3.org/2000/svg" xmlns:xlink="http://www.w3.org/1999/xlink" xmlns:sketch="http://www.bohemiancoding.com/sketch/ns">
    <!-- Generator: Sketch 3.4.2 (15857) - http://www.bohemiancoding.com/sketch -->
    <title>Artboard 1</title>
    <desc>Created with Sketch.</desc>
    <defs></defs>
    <g id="Page-1" stroke="none" stroke-width="1" fill="none" fill-rule="evenodd" sketch:type="MSPage">
        <g id="Artboard-1" sketch:type="MSArtboardGroup">
            <g id="Group" sketch:type="MSLayerGroup" transform="translate(14.000000, 23.000000)">
                <path d="M211.6,254.6 C211.6,277.2 193.2,295.6 170.6,295.6 M211.6,254.6 C211.6,232 230,213.6 252.6,213.6 L413,213.6" id="Shape" stroke="#CCCCCC" stroke-width="4" sketch:type="MSShapeGroup"></path>
                <circle id="Oval" stroke="#CCCCCC" stroke-width="4" fill="#FFFFFF" sketch:type="MSShapeGroup" cx="296" cy="213.6" r="21"></circle>
                <circle id="Oval" stroke="#CCCCCC" stroke-width="4" fill="#FFFFFF" sketch:type="MSShapeGroup" cx="392" cy="213.6" r="21"></circle>
                <path d="M0.6,295.6 L170.6,295.6" id="Shape" stroke="#404040" stroke-width="4" fill="#B3E3FF" sketch:type="MSShapeGroup"></path>
                <circle id="Oval" stroke="#404040" stroke-width="4" fill="#FFFFFF" sketch:type="MSShapeGroup" cx="21.6" cy="295.6" r="21"></circle>
                <circle id="Oval" stroke="#404040" stroke-width="4" fill="#FFFFFF" sketch:type="MSShapeGroup" cx="117.6" cy="295.6" r="21"></circle>
                <path d="M485,254.6 C485,277.2 466.6,295.6 444,295.6 M485,254.6 C485,232 503.4,213.6 526,213.6 L686.4,213.6" id="Shape" stroke="#404040" stroke-width="4" sketch:type="MSShapeGroup"></path>
                <circle id="Oval" stroke="#404040" stroke-width="4" fill="#FFFFFF" sketch:type="MSShapeGroup" cx="569.4" cy="213.6" r="21"></circle>
                <circle id="Oval" stroke="#404040" stroke-width="4" fill="#59AFE1" sketch:type="MSShapeGroup" cx="665.4" cy="213.6" r="21"></circle>
                <path d="M153.9,295.6 L444,295.6" id="Shape" stroke="#404040" stroke-width="4" fill="#B3E3FF" sketch:type="MSShapeGroup"></path>
                <circle id="Oval" stroke="#404040" stroke-width="4" fill="#B3E3FF" sketch:type="MSShapeGroup" cx="295" cy="295.6" r="21"></circle>
                <circle id="Oval" stroke="#404040" stroke-width="4" fill="#B3E3FF" sketch:type="MSShapeGroup" cx="391" cy="295.6" r="21"></circle>
                <circle id="Oval" stroke="#404040" stroke-width="4" fill="#FFFFFF" sketch:type="MSShapeGroup" cx="295" cy="295.6" r="21"></circle>
                <circle id="Oval" stroke="#404040" stroke-width="4" fill="#FFFFFF" sketch:type="MSShapeGroup" cx="392" cy="295.6" r="21"></circle>
                <path d="M342.3,72.7 L442.3,72.7 L442.3,122.7 L342.3,122.7 L342.3,72.7 Z" id="Shape" stroke="#CCCCCC" stroke-width="4" fill="#BCF1DD" sketch:type="MSShapeGroup"></path>
                <path d="M365.4,103.7 L365.4,93 L371.9,93 L371.9,94.4 L366.9,94.4 L366.9,97.8 L371.4,97.8 L371.4,99.2 L366.9,99.2 L366.9,103.7 L365.4,103.7 L365.4,103.7 Z M380.1,101.6 C379.7,102.9 378.5,103.9 376.9,103.9 C375,103.9 373.3,102.5 373.3,100 C373.3,97.7 374.9,96.2 376.7,96.2 C378.9,96.2 380.2,97.7 380.2,100 L380.2,100.4 L374.8,100.4 C374.8,101.7 375.8,102.6 377,102.6 C378.2,102.6 378.8,102 379,101.1 L380.1,101.6 L380.1,101.6 Z M378.6,99.3 C378.6,98.3 377.9,97.5 376.6,97.5 C375.4,97.5 374.7,98.4 374.6,99.3 L378.6,99.3 L378.6,99.3 Z M384.4,99.5 L386.4,99.2 C386.8,99.1 387,98.9 387,98.7 C387,98 386.5,97.4 385.4,97.4 C384.4,97.4 383.9,98 383.8,98.9 L382.4,98.6 C382.6,97.2 383.8,96.3 385.4,96.3 C387.6,96.3 388.4,97.5 388.4,98.9 L388.4,102.5 C388.4,103.1 388.5,103.5 388.5,103.7 L387,103.7 C387,103.5 386.9,103.2 386.9,102.7 C386.6,103.2 385.9,103.9 384.6,103.9 C383.1,103.9 382.2,102.9 382.2,101.7 C382.2,100.4 383.2,99.7 384.4,99.5 L384.4,99.5 Z M386.9,100.6 L386.9,100.3 L384.7,100.6 C384.1,100.7 383.7,101 383.7,101.7 C383.7,102.2 384.2,102.7 384.9,102.7 C386,102.7 386.9,102.1 386.9,100.6 L386.9,100.6 Z M393.2,96.4 L394.8,96.4 L394.8,97.7 L393.2,97.7 L393.2,101.5 C393.2,102.2 393.5,102.5 394.2,102.5 C394.4,102.5 394.6,102.5 394.8,102.4 L394.8,103.6 C394.7,103.6 394.3,103.7 393.8,103.7 C392.6,103.7 391.8,102.9 391.8,101.6 L391.8,97.6 L390.4,97.6 L390.4,96.3 L390.8,96.3 C391.6,96.3 391.9,95.8 391.9,95.2 L391.9,94 L393.2,94 L393.2,96.4 L393.2,96.4 Z M400,103.9 C398.3,103.9 397.3,102.6 397.3,101 L397.3,96.5 L398.7,96.5 L398.7,100.8 C398.7,101.8 399.2,102.7 400.3,102.7 C401.4,102.7 402,101.9 402,100.9 L402,96.5 L403.4,96.5 L403.4,102.4 C403.4,103 403.4,103.5 403.5,103.7 L402.2,103.7 C402.2,103.5 402.1,103.1 402.1,102.8 C401.7,103.5 400.8,103.9 400,103.9 L400,103.9 Z M410.6,97.9 L410,97.9 C408.8,97.9 408,98.5 408,100.1 L408,103.7 L406.6,103.7 L406.6,96.5 L408,96.5 L408,97.8 C408.5,96.7 409.4,96.4 410.2,96.4 L410.7,96.4 L410.7,97.9 L410.6,97.9 Z M419,101.6 C418.6,102.9 417.4,103.9 415.8,103.9 C413.9,103.9 412.2,102.5 412.2,100 C412.2,97.7 413.8,96.2 415.7,96.2 C417.9,96.2 419.2,97.7 419.2,100 L419.2,100.4 L413.8,100.4 C413.8,101.7 414.8,102.6 416,102.6 C417.2,102.6 417.8,102 418,101.1 L419,101.6 L419,101.6 Z M417.6,99.3 C417.6,98.3 416.9,97.5 415.6,97.5 C414.4,97.5 413.7,98.4 413.6,99.3 L417.6,99.3 L417.6,99.3 Z" id="Shape" fill="#404040" sketch:type="MSShapeGroup"></path>
                <path d="M392.3,168.5 L392.3,145 M403.1,159.8 L392.3,170.6 L381.4,159.8" id="Shape" stroke="#404040" stroke-width="4" sketch:type="MSShapeGroup"></path>
                <path d="M615.4,72.7 L715.4,72.7 L715.4,122.7 L615.4,122.7 L615.4,72.7 Z" id="Shape" stroke="#404040" stroke-width="4" fill="#4ED1A1" sketch:type="MSShapeGroup"></path>
                <path d="M638.6,103.7 L638.6,93 L645.1,93 L645.1,94.4 L640.1,94.4 L640.1,97.8 L644.6,97.8 L644.6,99.2 L640,99.2 L640,103.7 L638.6,103.7 L638.6,103.7 Z M653.2,101.6 C652.8,102.9 651.6,103.9 650,103.9 C648.1,103.9 646.4,102.5 646.4,100 C646.4,97.7 648,96.2 649.9,96.2 C652.1,96.2 653.4,97.7 653.4,100 L653.4,100.4 L648,100.4 C648,101.7 649,102.6 650.2,102.6 C651.4,102.6 652,102 652.2,101.1 L653.2,101.6 L653.2,101.6 Z M651.8,99.3 C651.8,98.3 651.1,97.5 649.8,97.5 C648.6,97.5 647.9,98.4 647.8,99.3 L651.8,99.3 L651.8,99.3 Z M657.5,99.5 L659.5,99.2 C659.9,99.1 660.1,98.9 660.1,98.7 C660.1,98 659.6,97.4 658.5,97.4 C657.5,97.4 657,98 656.9,98.9 L655.5,98.6 C655.7,97.2 656.9,96.3 658.5,96.3 C660.7,96.3 661.5,97.5 661.5,98.9 L661.5,102.5 C661.5,103.1 661.6,103.5 661.6,103.7 L660.2,103.7 C660.2,103.5 660.1,103.2 660.1,102.7 C659.8,103.2 659.1,103.9 657.8,103.9 C656.3,103.9 655.4,102.9 655.4,101.7 C655.3,100.4 656.3,99.7 657.5,99.5 L657.5,99.5 Z M660,100.6 L660,100.3 L657.8,100.6 C657.2,100.7 656.7,101 656.7,101.7 C656.7,102.2 657.2,102.7 657.9,102.7 C659.1,102.7 660,102.1 660,100.6 L660,100.6 Z M666.3,96.4 L667.9,96.4 L667.9,97.7 L666.3,97.7 L666.3,101.5 C666.3,102.2 666.6,102.5 667.3,102.5 C667.5,102.5 667.7,102.5 667.9,102.4 L667.9,103.6 C667.8,103.6 667.4,103.7 666.9,103.7 C665.7,103.7 664.9,102.9 664.9,101.6 L664.9,97.6 L663.5,97.6 L663.5,96.3 L663.9,96.3 C664.7,96.3 665,95.8 665,95.2 L665,94 L666.3,94 L666.3,96.4 L666.3,96.4 Z M673.1,103.9 C671.4,103.9 670.4,102.6 670.4,101 L670.4,96.5 L671.8,96.5 L671.8,100.8 C671.8,101.8 672.2,102.7 673.4,102.7 C674.5,102.7 675.1,101.9 675.1,100.9 L675.1,96.5 L676.5,96.5 L676.5,102.4 C676.5,103 676.5,103.5 676.6,103.7 L675.3,103.7 C675.3,103.5 675.2,103.1 675.2,102.8 C674.8,103.5 673.9,103.9 673.1,103.9 L673.1,103.9 Z M683.7,97.9 L683.1,97.9 C681.9,97.9 681.1,98.5 681.1,100.1 L681.1,103.7 L679.7,103.7 L679.7,96.5 L681.1,96.5 L681.1,97.8 C681.6,96.7 682.5,96.4 683.3,96.4 L683.8,96.4 L683.8,97.9 L683.7,97.9 Z M692.2,101.6 C691.8,102.9 690.6,103.9 689,103.9 C687.1,103.9 685.4,102.5 685.4,100 C685.4,97.7 687,96.2 688.8,96.2 C691,96.2 692.3,97.7 692.3,100 L692.3,100.4 L686.9,100.4 C686.9,101.7 687.9,102.6 689.1,102.6 C690.3,102.6 690.9,102 691.1,101.1 L692.2,101.6 L692.2,101.6 Z M690.7,99.3 C690.7,98.3 690,97.5 688.7,97.5 C687.5,97.5 686.8,98.4 686.7,99.3 L690.7,99.3 L690.7,99.3 Z" id="Shape" fill="#404040" sketch:type="MSShapeGroup"></path>
                <path d="M665.4,168.5 L665.4,145 M676.2,159.8 L665.4,170.6 L654.5,159.8 M612.1,40.9 L627.5,40.9 L627.5,25.6 M435,37.7 C459.9,14.6 493.1,0.6 529.7,0.6 C566.2,0.6 599.4,14.6 624.2,37.6 M642.1,377.6 L657.5,377.6 L657.5,392.9 M458.790471,426.333447 C556.495236,472.685773 629.4,403.7 654.2,380.7" id="Shape" stroke="#404040" stroke-width="4" sketch:type="MSShapeGroup"></path>
                <path d="M341,387.6 L441,387.6 L441,437.6 L341,437.6 L341,387.6 Z" id="Shape" stroke="#CCCCCC" stroke-width="4" fill="#B3E3FF" sketch:type="MSShapeGroup"></path>
                <path d="M376.3,418.6 L376.3,410.3 L372.7,418.6 L371.4,418.6 L367.8,410.3 L367.8,418.6 L366.3,418.6 L366.3,408 L368.3,408 L372.1,416.7 L375.9,408 L377.9,408 L377.9,418.6 L376.3,418.6 L376.3,418.6 Z M382.8,414.5 L384.7,414.2 C385.1,414.1 385.3,413.9 385.3,413.7 C385.3,413 384.8,412.4 383.7,412.4 C382.7,412.4 382.2,413 382.1,413.9 L380.7,413.6 C380.9,412.2 382.1,411.3 383.7,411.3 C385.9,411.3 386.7,412.5 386.7,413.9 L386.7,417.5 C386.7,418.1 386.8,418.5 386.8,418.7 L385.4,418.7 C385.4,418.5 385.3,418.2 385.3,417.7 C385,418.2 384.3,418.9 383,418.9 C381.5,418.9 380.6,417.9 380.6,416.7 C380.6,415.4 381.5,414.7 382.8,414.5 L382.8,414.5 Z M385.3,415.5 L385.3,415.2 L383.1,415.5 C382.5,415.6 382.1,415.9 382.1,416.6 C382.1,417.1 382.5,417.6 383.3,417.6 C384.3,417.6 385.3,417.1 385.3,415.5 L385.3,415.5 Z M390.2,416.3 C390.3,417.1 390.9,417.6 391.9,417.6 C392.7,417.6 393.1,417.1 393.1,416.6 C393.1,416.1 392.8,415.8 392.2,415.7 L391,415.4 C389.9,415.2 389.2,414.4 389.2,413.4 C389.2,412.2 390.4,411.1 391.8,411.1 C393.8,411.1 394.4,412.4 394.5,413 L393.3,413.5 C393.2,413.1 392.9,412.3 391.8,412.3 C391.1,412.3 390.6,412.8 390.6,413.3 C390.6,413.7 390.9,414.1 391.4,414.2 L392.6,414.5 C393.9,414.8 394.6,415.6 394.6,416.6 C394.6,417.6 393.7,418.8 392,418.8 C390,418.8 389.2,417.5 389.1,416.7 L390.2,416.3 L390.2,416.3 Z M399,411.4 L400.6,411.4 L400.6,412.7 L399,412.7 L399,416.5 C399,417.2 399.3,417.5 400,417.5 C400.2,417.5 400.4,417.5 400.6,417.4 L400.6,418.6 C400.5,418.6 400.1,418.7 399.6,418.7 C398.4,418.7 397.6,417.9 397.6,416.6 L397.6,412.6 L396.2,412.6 L396.2,411.3 L396.6,411.3 C397.4,411.3 397.7,410.8 397.7,410.2 L397.7,409 L399,409 L399,411.4 L399,411.4 Z M409.4,416.5 C409,417.8 407.8,418.8 406.2,418.8 C404.3,418.8 402.6,417.4 402.6,414.9 C402.6,412.6 404.2,411.1 406.1,411.1 C408.3,411.1 409.6,412.6 409.6,414.9 L409.6,415.3 L404,415.3 C404,416.6 405,417.5 406.2,417.5 C407.4,417.5 408,416.9 408.2,416 L409.4,416.5 L409.4,416.5 Z M408,414.2 C408,413.2 407.3,412.4 406,412.4 C404.8,412.4 404.1,413.3 404,414.2 L408,414.2 L408,414.2 Z M416,412.8 L415.4,412.8 C414.2,412.8 413.4,413.4 413.4,415 L413.4,418.6 L412,418.6 L412,411.4 L413.4,411.4 L413.4,412.7 C413.9,411.6 414.8,411.3 415.6,411.3 L416.1,411.3 L416.1,412.8 L416,412.8 Z" id="Shape" fill="#404040" sketch:type="MSShapeGroup"></path>
                <path d="M391,341.1 L391,364.6 M380.2,349.8 L391,338.9 L401.9,349.8" id="Shape" stroke="#404040" stroke-width="4" sketch:type="MSShapeGroup"></path>
                <path d="M562.9,213.7 L575.9,213.7 M564.8,209.1 L574,218.3 M574,209.1 L564.8,218.3 M569.4,207.2 L569.4,220.2 M658.5,213.7 L671.5,213.7 M660.4,209.1 L669.6,218.3 M669.6,209.1 L660.4,218.3 M665,207.2 L665,220.2" id="Shape" stroke="#404040" stroke-width="4" fill="#FFFFFF" sketch:type="MSShapeGroup"></path>
                <path d="M665.8,260.2 L665.8,283.7" id="Path" stroke="#404040" stroke-width="4" sketch:type="MSShapeGroup"></path>
                <path d="M655,268.9 L665.8,258 L676.7,268.9" id="Path" stroke="#404040" stroke-width="4" sketch:type="MSShapeGroup"></path>
                <path d="M300.3,511.9 C302.3,511.9 303.5,513.1 303.5,514.8 C303.5,515.9 302.8,516.8 301.9,517.1 C303.1,517.4 303.8,518.5 303.8,519.7 C303.8,521.4 302.5,522.6 300.5,522.6 L296.8,522.6 L296.8,512 L300.3,512 L300.3,511.9 Z M300.2,516.5 C301.4,516.5 302.1,515.8 302.1,514.8 C302.1,513.8 301.4,513.1 300.1,513.1 L298.3,513.1 L298.3,516.5 L300.2,516.5 L300.2,516.5 Z M300.4,521.2 C301.6,521.2 302.4,520.5 302.4,519.5 C302.4,518.5 301.8,517.8 300.5,517.8 L298.4,517.8 L298.4,521.2 L300.4,521.2 L300.4,521.2 Z M310.4,516.7 L309.8,516.7 C308.6,516.7 307.8,517.3 307.8,518.9 L307.8,522.5 L306.4,522.5 L306.4,515.3 L307.8,515.3 L307.8,516.6 C308.3,515.5 309.2,515.2 310,515.2 L310.5,515.2 L310.5,516.7 L310.4,516.7 Z M314.4,518.4 L316.4,518.1 C316.8,518 317,517.8 317,517.6 C317,516.9 316.5,516.3 315.4,516.3 C314.4,516.3 313.9,516.9 313.8,517.8 L312.5,517.5 C312.6,516.1 313.9,515.2 315.5,515.2 C317.7,515.2 318.5,516.4 318.5,517.8 L318.5,521.4 C318.5,522 318.6,522.4 318.6,522.6 L317,522.6 C317,522.4 316.9,522.1 316.9,521.6 C316.6,522.1 315.9,522.8 314.6,522.8 C313.1,522.8 312.2,521.8 312.2,520.6 C312.2,519.3 313.2,518.6 314.4,518.4 L314.4,518.4 Z M316.9,519.4 L316.9,519.1 L314.7,519.4 C314.1,519.5 313.6,519.8 313.6,520.5 C313.6,521 314.1,521.5 314.8,521.5 C316,521.5 316.9,521 316.9,519.4 L316.9,519.4 Z M322.7,522.5 L321.3,522.5 L321.3,515.3 L322.7,515.3 L322.7,516.3 C323.2,515.4 324.1,515.1 324.9,515.1 C326.6,515.1 327.5,516.3 327.5,518 L327.5,522.6 L326,522.6 L326,518.3 C326,517.3 325.6,516.5 324.3,516.5 C323.2,516.5 322.6,517.4 322.6,518.5 L322.6,522.5 L322.7,522.5 Z M335.5,521.4 C335.2,522.1 334.4,522.7 333.3,522.7 C331.2,522.7 329.9,521 329.9,518.9 C329.9,516.9 331.3,515.1 333.3,515.1 C334.6,515.1 335.3,515.7 335.5,516.3 L335.5,511.6 L336.9,511.6 L336.9,521.1 C336.9,521.8 337,522.3 337,522.4 L335.6,522.4 C335.6,522.2 335.5,521.9 335.5,521.4 L335.5,521.4 Z M333.4,521.5 C334.7,521.5 335.5,520.4 335.5,518.9 C335.5,517.4 334.7,516.4 333.4,516.4 C332.1,516.4 331.3,517.4 331.3,518.9 C331.3,520.4 332.1,521.5 333.4,521.5 L333.4,521.5 Z M351.9,522.5 L346.2,513.8 L346.2,522.5 L344.7,522.5 L344.7,511.9 L346.7,511.9 L352,520.1 L352,511.9 L353.5,511.9 L353.5,522.5 L351.9,522.5 L351.9,522.5 Z M363,520.5 C362.6,521.8 361.4,522.8 359.8,522.8 C357.9,522.8 356.2,521.4 356.2,518.9 C356.2,516.6 357.8,515.1 359.7,515.1 C361.9,515.1 363.2,516.6 363.2,518.9 L363.2,519.3 L357.8,519.3 C357.8,520.6 358.8,521.5 360,521.5 C361.2,521.5 361.8,520.9 362,520 L363,520.5 L363,520.5 Z M361.6,518.2 C361.6,517.2 360.9,516.4 359.6,516.4 C358.4,516.4 357.7,517.3 357.6,518.2 L361.6,518.2 L361.6,518.2 Z M371,515.3 L372.9,520.7 L374.5,515.3 L376,515.3 L373.7,522.5 L372.2,522.5 L370.3,517 L368.4,522.5 L366.9,522.5 L364.5,515.3 L366,515.3 L367.6,520.7 L369.5,515.3 L371,515.3 L371,515.3 Z M382.1,517.2 C382.1,513.6 384.7,511.7 387.4,511.7 C389.8,511.7 391.5,513 392.1,515.1 L390.7,515.6 C390.3,514 389.1,513.1 387.4,513.1 C385.5,513.1 383.6,514.5 383.6,517.3 C383.6,520.1 385.4,521.5 387.4,521.5 C389.2,521.5 390.4,520.4 390.8,519 L392.1,519.5 C391.5,521.5 389.9,522.9 387.4,522.9 C384.7,522.7 382.1,520.7 382.1,517.2 L382.1,517.2 Z M401.2,518.9 C401.2,521.1 399.7,522.7 397.5,522.7 C395.3,522.7 393.8,521.1 393.8,518.9 C393.8,516.7 395.3,515.1 397.5,515.1 C399.7,515.1 401.2,516.7 401.2,518.9 L401.2,518.9 Z M399.7,518.9 C399.7,517.2 398.7,516.3 397.5,516.3 C396.3,516.3 395.3,517.2 395.3,518.9 C395.3,520.6 396.3,521.5 397.5,521.5 C398.7,521.5 399.7,520.6 399.7,518.9 L399.7,518.9 Z M403.7,522.5 L403.7,515.3 L405,515.3 L405,516.3 C405.5,515.5 406.4,515.1 407.2,515.1 C408.1,515.1 409,515.5 409.4,516.5 C410,515.5 410.9,515.1 411.8,515.1 C413.1,515.1 414.3,516 414.3,517.8 L414.3,522.5 L412.9,522.5 L412.9,518 C412.9,517.1 412.4,516.3 411.4,516.3 C410.4,516.3 409.7,517.1 409.7,518.1 L409.7,522.5 L408.3,522.5 L408.3,518 C408.3,517.1 407.8,516.3 406.8,516.3 C405.8,516.3 405.1,517.1 405.1,518.1 L405.1,522.4 L403.7,522.4 L403.7,522.5 Z M417.3,522.5 L417.3,515.3 L418.6,515.3 L418.6,516.3 C419.1,515.5 420,515.1 420.8,515.1 C421.7,515.1 422.6,515.5 423,516.5 C423.6,515.5 424.5,515.1 425.4,515.1 C426.7,515.1 427.9,516 427.9,517.8 L427.9,522.5 L426.5,522.5 L426.5,518 C426.5,517.1 426,516.3 425,516.3 C424,516.3 423.3,517.1 423.3,518.1 L423.3,522.5 L421.9,522.5 L421.9,518 C421.9,517.1 421.4,516.3 420.4,516.3 C419.4,516.3 418.7,517.1 418.7,518.1 L418.7,522.4 L417.3,522.4 L417.3,522.5 Z M431.6,511.5 C432.2,511.5 432.6,511.9 432.6,512.5 C432.6,513.1 432.1,513.5 431.6,513.5 C431,513.5 430.6,513 430.6,512.5 C430.6,512 431,511.5 431.6,511.5 L431.6,511.5 Z M430.9,522.5 L430.9,515.3 L432.3,515.3 L432.3,522.5 L430.9,522.5 L430.9,522.5 Z M437.3,515.3 L438.9,515.3 L438.9,516.6 L437.3,516.6 L437.3,520.4 C437.3,521.1 437.6,521.4 438.3,521.4 C438.5,521.4 438.7,521.4 438.9,521.3 L438.9,522.5 C438.8,522.5 438.4,522.6 437.9,522.6 C436.7,522.6 435.9,521.8 435.9,520.5 L435.9,516.5 L434.5,516.5 L434.5,515.2 L434.9,515.2 C435.7,515.2 436,514.7 436,514.1 L436,512.9 L437.3,512.9 L437.3,515.3 L437.3,515.3 Z M442.2,520.2 C442.3,521 442.9,521.5 443.9,521.5 C444.7,521.5 445.1,521 445.1,520.5 C445.1,520 444.8,519.7 444.2,519.6 L443,519.3 C441.9,519.1 441.2,518.3 441.2,517.3 C441.2,516.1 442.4,515 443.8,515 C445.8,515 446.4,516.3 446.5,516.9 L445.3,517.4 C445.2,517 444.9,516.2 443.8,516.2 C443.1,516.2 442.6,516.7 442.6,517.2 C442.6,517.6 442.9,518 443.4,518.1 L444.6,518.4 C445.9,518.7 446.6,519.5 446.6,520.5 C446.6,521.5 445.7,522.7 444,522.7 C442,522.7 441.2,521.4 441.1,520.6 L442.2,520.2 L442.2,520.2 Z" id="Shape" fill="#404040" sketch:type="MSShapeGroup"></path>
                <path d="M268.1,517 L281.1,517 M270,512.4 L279.2,521.6 M279.2,512.4 L270,521.6 M274.6,510.5 L274.6,523.5" id="Shape" stroke="#404040" stroke-width="4" fill="#FFFFFF" sketch:type="MSShapeGroup"></path>
                <path d="M620,309 L716.2,309 L716.2,359 L620,359 L620,309 Z" id="Shape" stroke="#404040" stroke-width="4" fill="#59AFE1" sketch:type="MSShapeGroup"></path>
                <path d="M654.7,340 L654.7,331.7 L651.1,340 L649.8,340 L646.2,331.7 L646.2,340 L644.7,340 L644.7,329.4 L646.7,329.4 L650.5,338.1 L654.3,329.4 L656.3,329.4 L656.3,340 L654.7,340 L654.7,340 Z M661.1,335.9 L663,335.6 C663.4,335.5 663.6,335.3 663.6,335.1 C663.6,334.4 663.1,333.8 662,333.8 C661,333.8 660.5,334.4 660.4,335.3 L659,335 C659.2,333.6 660.4,332.7 662,332.7 C664.2,332.7 665,333.9 665,335.3 L665,338.9 C665,339.5 665.1,339.9 665.1,340.1 L663.7,340.1 C663.7,339.9 663.6,339.6 663.6,339.1 C663.3,339.6 662.6,340.3 661.3,340.3 C659.8,340.3 658.9,339.3 658.9,338.1 C658.9,336.8 659.8,336 661.1,335.9 L661.1,335.9 Z M663.6,336.9 L663.6,336.6 L661.4,336.9 C660.8,337 660.4,337.3 660.4,338 C660.4,338.5 660.8,339 661.6,339 C662.7,339 663.6,338.5 663.6,336.9 L663.6,336.9 Z M668.5,337.7 C668.6,338.5 669.2,339 670.2,339 C671,339 671.4,338.5 671.4,338 C671.4,337.5 671.1,337.2 670.5,337.1 L669.3,336.8 C668.2,336.6 667.5,335.8 667.5,334.8 C667.5,333.6 668.7,332.5 670.1,332.5 C672.1,332.5 672.7,333.8 672.8,334.4 L671.6,334.9 C671.5,334.5 671.2,333.7 670.1,333.7 C669.4,333.7 668.9,334.2 668.9,334.7 C668.9,335.1 669.2,335.5 669.7,335.6 L670.9,335.9 C672.2,336.2 672.9,337 672.9,338 C672.9,339 672,340.2 670.3,340.2 C668.3,340.2 667.5,338.9 667.4,338.1 L668.5,337.7 L668.5,337.7 Z M677.4,332.8 L679,332.8 L679,334.1 L677.4,334.1 L677.4,337.9 C677.4,338.6 677.7,338.9 678.4,338.9 C678.6,338.9 678.8,338.9 679,338.8 L679,340 C678.9,340 678.5,340.1 678,340.1 C676.8,340.1 676,339.3 676,338 L676,334 L674.6,334 L674.6,332.7 L675,332.7 C675.8,332.7 676.1,332.2 676.1,331.6 L676.1,330.4 L677.4,330.4 L677.4,332.8 L677.4,332.8 Z M687.8,337.9 C687.4,339.2 686.2,340.2 684.6,340.2 C682.7,340.2 681,338.8 681,336.3 C681,334 682.6,332.5 684.5,332.5 C686.7,332.5 688,334 688,336.3 L688,336.7 L682.6,336.7 C682.6,338 683.6,338.9 684.8,338.9 C686,338.9 686.6,338.3 686.8,337.4 L687.8,337.9 L687.8,337.9 Z M686.3,335.6 C686.3,334.6 685.6,333.8 684.3,333.8 C683.1,333.8 682.4,334.7 682.3,335.6 L686.3,335.6 L686.3,335.6 Z M694.4,334.2 L693.8,334.2 C692.6,334.2 691.8,334.8 691.8,336.4 L691.8,340 L690.4,340 L690.4,332.8 L691.8,332.8 L691.8,334.1 C692.3,333 693.2,332.7 694,332.7 L694.5,332.7 L694.5,334.2 L694.4,334.2 Z" id="Shape" fill="#404040" sketch:type="MSShapeGroup"></path>
            </g>
        </g>
    </g>
</svg>