<?xml version="1.0" encoding="UTF-8" standalone="no"?>
<svg viewBox="0 0 817.53003 817.53101" xmlns="http://www.w3.org/2000/svg">
<path d="m-262.50039,278.08163h525.00016c20.77501,0 37.50002,16.72501 37.50002,37.50002v525.00016c0,20.775-16.72501,37.50001-37.50002,37.50001h-525.00016c-20.775,0-37.50001-16.72501-37.50001-37.50001v-525.00016c0-20.77501 16.72501-37.50002 37.50001-37.50002z" fill="#f7d117" transform="matrix(.70711,-.70711,.70711,.70711,0,0)"/>
<path d="m-262.51244,287.45663h525.00016c15.58126,0 28.12501,12.54376 28.12501,28.12501v525.00017c0,15.58125-12.54375,28.12501-28.12501,28.12501h-525.00016c-15.58126,0-28.12501-12.54376-28.12501-28.12501v-525.00017c0-15.58125 12.54375-28.12501 28.12501-28.12501z" transform="matrix(.70711,-.70711,.70711,.70711,0,0)"/>
<path d="m-262.53253,303.08163h525.00018c6.925,0 12.5,5.57501 12.5,12.50001v525.00017c0,6.92501-5.575,12.50001-12.5,12.50001h-525.00018c-6.925,0-12.5-5.575-12.5-12.50001v-525.00017c0-6.925 5.575-12.50001 12.5-12.50001z" fill="#f7d117" transform="matrix(.70711,-.70711,.70711,.70711,0,0)"/>
<path d="m408.46875,151c-.56568.1606-1.33163.54549-2.125,1.4375l-110.6875,160.96875c-2.66815,4.77029-2.78082,6.72827-2.84375,10.78125-1e-005,5.26989 1.40666,9.82327 4.28125,13.65625s7.18831,5.74981 12.9375,5.75c2.39548-.00018 13.97928-3.34394 14.9375-3.34375l15.96875-4.5625 22.28125-6.46875v303.46079h89.78125v-303.46079l23,6.46875 15.96875,4.5625c.95822-.00019 12.54203,3.34357 14.9375,3.34375 5.74919-.00019 10.06293-1.91741 12.9375-5.75s4.31251-8.38636 4.3125-13.65625c-.06293-4.05298-.20685-6.01096-2.875-10.78125l-110.65625-160.96875c-.79337-.89201-1.59057-1.2769-2.15625-1.4375z"/>
<path d="m-40.36634,712.86188h60v60h-60z" fill="#003882" transform="matrix(.70731,-.7069,.7069,.70731,0,0)"/>
<path d="m517.42539,574.28627 42.4264-42.4264-109.68994-109.68994-39.68636,47.46454 106.9499,104.6518z" fill-rule="evenodd" stroke="#000"/>
<path d="m452.54834,329.62733c0,0-4.28973,27.51201 8.83883,80.92516 10.89773,44.33706 97.58074,120.95383 97.58074,120.95383l-121.62237-94.39876 15.2028-107.48023z" fill-rule="evenodd" stroke="#000"/>
</svg>
